<svg xmlns="http://www.w3.org/2000/svg" width="16" height="16" viewBox="0 0 16 16">
  <path fill-rule="evenodd" d="M13.6569 7.29537L8.70715 2.34563C8.31662 1.9551 7.68346 1.9551 7.29293 2.34563L2.34319 7.29537C1.95266 7.6859 1.95266 8.31906 2.34319 8.70959L7.29293 13.6593C7.68346 14.0499 8.31662 14.0499 8.70715 13.6593L13.6569 8.70959C14.0474 8.31906 14.0474 7.6859 13.6569 7.29537ZM10.1214 0.931414C8.94979 -0.240159 7.05029 -0.240159 5.87872 0.931414L0.928973 5.88116C-0.2426 7.05273 -0.2426 8.95223 0.928973 10.1238L5.87872 15.0735C7.05029 16.2451 8.94979 16.2451 10.1214 15.0735L15.0711 10.1238C16.2427 8.95223 16.2427 7.05273 15.0711 5.88116L10.1214 0.931414ZM7.05009 8.0001C7.05009 8.82852 6.37852 9.5001 5.55009 9.5001C4.72166 9.5001 4.05009 8.82852 4.05009 8.0001C4.05009 7.17167 4.72166 6.5001 5.55009 6.5001C6.37852 6.5001 7.05009 7.17167 7.05009 8.0001ZM10.45 9.5001C11.2784 9.5001 11.95 8.82852 11.95 8.0001C11.95 7.17167 11.2784 6.5001 10.45 6.5001C9.62156 6.5001 8.94999 7.17167 8.94999 8.0001C8.94999 8.82852 9.62156 9.5001 10.45 9.5001Z"/>
</svg>
