<svg width="18" height="18" viewBox="0 0 18 18" xmlns="http://www.w3.org/2000/svg">
  <path fill-rule="evenodd" d="M1.0459 0.0788269V9.19133H3.2959V2.32883H14.7068V14.1683C14.7214 14.523 14.6058 14.8708 14.3818 15.1462C14.1578 15.4216 13.8409 15.6056 13.4906 15.6635C13.4381 15.6702 13.385 15.6729 13.332 15.6713H13.305C12.9521 15.66 12.6174 15.512 12.3715 15.2587C12.1255 15.0054 11.9875 14.6665 11.9865 14.3135L11.9933 10.7045H1.0459V14.1076C1.04679 15.118 1.44849 16.0868 2.16285 16.8013C2.87721 17.5159 3.84587 17.9179 4.85627 17.9191H13.3545C13.4748 17.9193 13.5949 17.9132 13.7145 17.9011C14.6184 17.7838 15.4479 17.3388 16.0455 16.6505C16.6431 15.9623 16.9674 15.0786 16.9568 14.1672V0.0788269H1.0459ZM4.85627 15.6702C4.44242 15.6696 4.04571 15.5049 3.75318 15.2121C3.46065 14.9194 3.2962 14.5226 3.2959 14.1087V12.9545H9.73877V14.3045C9.73871 14.7708 9.82926 15.2328 10.0054 15.6646L4.85627 15.6702ZM13.0204 3.9971H4.99686V5.6846H13.0204V3.9971ZM4.99686 7.35315H10.3001V9.04065H4.99686V7.35315Z" />
</svg>
