<svg xmlns="http://www.w3.org/2000/svg" width="16" height="16" viewBox="0 0 16 16">
  <path fill-rule="evenodd" d="M4.67472 2.42993C3.89794 2.42993 3.28255 2.689 2.76101 3.20225C2.25658 3.69867 2 4.31423 2 5.11592C2 5.51591 2.07628 5.93062 2.23345 6.36516C2.38018 6.77083 2.65843 7.26883 3.09802 7.86602C3.54916 8.4635 4.16028 9.16221 4.94069 9.9646C5.72121 10.7671 6.72971 11.7318 7.94916 12.8507L8 12.896L8.04897 12.8524C9.27401 11.7172 10.2804 10.7655 11.0593 9.9646L11.0642 9.95959C11.8606 9.15216 12.4632 8.47186 12.8938 7.87724C13.3394 7.26187 13.6211 6.75872 13.7689 6.35864C13.9229 5.94195 14 5.5293 14 5.11592C14 4.31423 13.7434 3.69867 13.239 3.20225L13.2333 3.19664C12.7191 2.68241 12.1092 2.42993 11.3253 2.42993C10.8695 2.42993 10.4433 2.54184 10.0243 2.76417C9.62804 2.97441 9.21358 3.32877 8.79315 3.87632L7.96161 4.95926L7.18004 3.83971C6.83894 3.35111 6.46488 3.01206 6.04209 2.77994C5.61421 2.54503 5.17098 2.42993 4.67472 2.42993ZM1.35815 1.77677C2.25691 0.892285 3.37742 0.429932 4.67472 0.429932C5.50857 0.429932 6.28273 0.630457 7.00461 1.02678C7.37553 1.23043 7.71219 1.47666 8.01847 1.76282C8.35112 1.45687 8.70662 1.19922 9.08684 0.997468C9.77251 0.633645 10.5186 0.429932 11.3253 0.429932C12.6141 0.429932 13.7392 0.875441 14.6448 1.77965C15.5587 2.68053 16 3.82237 16 5.11592C16 5.78467 15.8742 6.4316 15.6449 7.05194C15.4095 7.6889 15.0149 8.35806 14.5136 9.05026C13.9979 9.76251 13.3163 10.5242 12.4906 11.3616C11.6708 12.2043 10.6289 13.1884 9.40109 14.3261L9.39386 14.3328L8 15.5742L6.60799 14.3344L6.60255 14.3294C5.36712 13.196 4.32594 12.2011 3.50697 11.359C2.6887 10.5177 2.01591 9.75254 1.49798 9.06599L1.49119 9.05698C0.985848 8.37116 0.58885 7.69832 0.3527 7.04543C0.12662 6.42039 0 5.77552 0 5.11592C0 3.82099 0.442291 2.6781 1.35815 1.77677Z"/>
</svg>
