<svg xmlns="http://www.w3.org/2000/svg" width="16" height="16" viewBox="0 0 16 16">
  <path d="M8 6.75C7.30964 6.75 6.75 7.30964 6.75 8C6.75 8.69036 7.30964 9.25 8 9.25C8.69036 9.25 9.25 8.69036 9.25 8C9.25 7.30964 8.69036 6.75 8 6.75ZM5.25 8C5.25 6.48122 6.48122 5.25 8 5.25C9.51878 5.25 10.75 6.48122 10.75 8C10.75 9.51878 9.51878 10.75 8 10.75C6.48122 10.75 5.25 9.51878 5.25 8Z"/>
  <path d="M10.3191 15.5741H5.65812L4.96412 13.4181C4.94701 13.3826 4.91944 13.3533 4.88512 13.3341C4.83213 13.3069 4.77175 13.2978 4.71312 13.3081L2.51312 13.7491L0.120117 9.76107L1.67212 8.04607C1.69848 8.0169 1.71371 7.97936 1.71512 7.94007C1.71453 7.9006 1.69919 7.86279 1.67212 7.83407L0.126117 6.12607L2.48512 2.13707L4.69412 2.58407C4.75337 2.59597 4.81493 2.58677 4.86812 2.55807C4.90847 2.53662 4.93946 2.501 4.95512 2.45807L5.68512 0.320068H10.3261L11.0501 2.45307C11.0643 2.49862 11.096 2.53672 11.1381 2.55907C11.1906 2.58781 11.2514 2.59735 11.3101 2.58607L13.5251 2.14307L15.8771 6.15107L14.3401 7.85107C14.3148 7.87835 14.3003 7.91388 14.2991 7.95107C14.2993 7.99042 14.3143 8.02825 14.3411 8.05707L15.8771 9.75707L13.5251 13.7641L11.3111 13.3211C11.2517 13.3108 11.1906 13.3202 11.1371 13.3481C11.097 13.3695 11.0663 13.4052 11.0511 13.4481L10.3191 15.5741ZM7.11912 13.5741H8.89312L9.15612 12.8121C9.32905 12.304 9.68237 11.877 10.1491 11.6121C10.6211 11.346 11.1727 11.2577 11.7041 11.3631L12.5221 11.5271L13.4111 10.0141L12.8581 9.40207C12.4997 9.00631 12.3013 8.49147 12.3013 7.95757C12.3013 7.42366 12.4997 6.90882 12.8581 6.51307L13.4131 5.89907L12.5221 4.38407L11.7041 4.54707C11.1731 4.65136 10.6223 4.56346 10.1501 4.29907C9.68281 4.03453 9.32905 3.60745 9.15612 3.09907L8.89312 2.32407H7.11412L6.85112 3.09307C6.67819 3.60115 6.32486 4.02812 5.85812 4.29307C5.38599 4.55863 4.83456 4.64693 4.30312 4.54207L3.48512 4.37707L2.59612 5.87707L3.15012 6.48407C3.50338 6.86929 3.70414 7.37006 3.71482 7.89262C3.72549 8.41519 3.54535 8.92374 3.20812 9.32307L3.15012 9.38907L2.59612 9.99907L3.49612 11.5071L4.31512 11.3431C4.84621 11.2367 5.39783 11.3251 5.86912 11.5921C6.3359 11.8564 6.68876 12.2837 6.86012 12.7921L7.11912 13.5741Z"/>
</svg>
