<svg width="10" height="10" viewBox="0 0 10 10" xmlns="http://www.w3.org/2000/svg">
  <path d="M2.71203 9.01552C2.48448 9.15038 2.20644 8.94615 2.26706 8.68868L2.8252 6.31814C2.85098 6.20865 2.81334 6.09394 2.72771 6.021L0.859839 4.43002C0.656943 4.2572 0.763319 3.92537 1.02888 3.90272L3.50843 3.69126C3.61868 3.68186 3.7148 3.61254 3.75852 3.5109L4.72442 1.26561C4.82849 1.02368 5.17151 1.02368 5.27558 1.26561L6.24148 3.5109C6.2852 3.61254 6.38132 3.68186 6.49157 3.69126L8.97112 3.90272C9.23668 3.92537 9.34306 4.2572 9.14016 4.43002L7.27229 6.021C7.18666 6.09394 7.14902 6.20865 7.1748 6.31814L7.73294 8.68869C7.79356 8.94615 7.51552 9.15038 7.28797 9.01552L5.15295 7.75019C5.05864 7.69429 4.94136 7.69429 4.84705 7.75019L2.71203 9.01552Z" />
</svg>
