<svg width="22" height="22" viewBox="0 0 22 22" fill="none" xmlns="http://www.w3.org/2000/svg">
<path fill-rule="evenodd" clip-rule="evenodd" d="M4 1.25C2.48122 1.25 1.25 2.48122 1.25 4V18C1.25 19.5188 2.48122 20.75 4 20.75H18C19.5188 20.75 20.75 19.5188 20.75 18V4C20.75 2.48122 19.5188 1.25 18 1.25H4ZM2.75 4C2.75 3.30964 3.30964 2.75 4 2.75H18C18.6904 2.75 19.25 3.30964 19.25 4V7.60742H15.6426C13.7689 7.60742 12.25 9.12633 12.25 11C12.25 12.8737 13.7689 14.3926 15.6426 14.3926H19.25V18C19.25 18.6904 18.6904 19.25 18 19.25H4C3.30964 19.25 2.75 18.6904 2.75 18V4ZM19.25 12.8926V9.10742H15.6426C14.5973 9.10742 13.75 9.95476 13.75 11C13.75 12.0452 14.5973 12.8926 15.6426 12.8926H19.25Z" fill="currentColor"/>
</svg>
