<svg xmlns="http://www.w3.org/2000/svg" viewBox="0 0 24 24">
  <path d="m10.5 17.6 1.754-3.838L13.8 17.6h.158l3.408-6.582 2.329-.933-.026-.17-5.491-.982-.046.164 1.406 1.385-1.332 2.886-1.794-4h-.161l-1.68 3.89-1.357-3.035 1.31-.973-.1-.273-5.815.376.029.274 2.008 1.058 3.6 6.918.254-.003Z"/>
  <path d="M12 2.25c-5.385 0-9.75 4.365-9.75 9.75s4.365 9.75 9.75 9.75 9.75-4.365 9.75-9.75S17.385 2.25 12 2.25ZM.75 12C.75 5.787 5.787.75 12 .75S23.25 5.787 23.25 12 18.213 23.25 12 23.25.75 18.213.75 12Z"/>
</svg>
