<svg xmlns="http://www.w3.org/2000/svg" viewBox="0 0 24 24">
  <path fill-rule="evenodd" d="M5.852 9.772a3 3 0 1 0 2.296-5.544 3 3 0 0 0-2.296 5.544Zm-.435 1.44a4.502 4.502 0 0 1-1.6-7.394 4.5 4.5 0 1 1 1.6 7.395Zm3.166 1.575a4.5 4.5 0 1 0-3.166 8.425 4.5 4.5 0 0 0 3.166-8.425Zm4.204 2.63a4.5 4.5 0 1 0 8.426 3.166 4.5 4.5 0 0 0-8.426-3.166Zm2.63-4.204a4.5 4.5 0 1 0 3.165-8.424 4.5 4.5 0 0 0-3.165 8.424ZM4.88 19.12a3 3 0 1 0 4.24-4.24 3 3 0 0 0-4.24 4.24Zm10.973-9.35a3 3 0 1 0 2.296-5.543 3 3 0 0 0-2.296 5.544Zm-.973 9.35a3 3 0 1 0 4.242-4.242 3 3 0 0 0-4.242 4.242Z"/>
</svg>
